G04 DipTrace 3.2.0.1*
G04 PCBTutorial.gto*
%MOIN*%
G04 #@! TF.FileFunction,Legend,Top*
G04 #@! TF.Part,Single*
%ADD10C,0.009843*%
%ADD26C,0.008*%
%ADD27C,0.009*%
%ADD58C,0.00772*%
%ADD59C,0.006176*%
%ADD60C,0.004632*%
%ADD62C,0.003281*%
%FSLAX26Y26*%
G04*
G70*
G90*
G75*
G01*
G04 TopSilk*
%LPD*%
X1635360Y869571D2*
D10*
Y818429D1*
Y719571D2*
Y668429D1*
X1060360Y869571D2*
Y818429D1*
X1085360Y769571D2*
Y718429D1*
X1944062Y1843993D2*
X2093938D1*
X1943762Y1843768D2*
G03X2094238Y1843768I75238J-99796D01*
G01*
X1619062Y1843993D2*
X1768938D1*
X1618762Y1843768D2*
G03X1769238Y1843768I75238J-99796D01*
G01*
X1294062Y1843993D2*
X1443938D1*
X1293762Y1843768D2*
G03X1444238Y1843768I75238J-99796D01*
G01*
X969062Y1843993D2*
X1118938D1*
X968762Y1843768D2*
G03X1119238Y1843768I75238J-99796D01*
G01*
X1168995Y944019D2*
X1269000D1*
Y1243981D1*
X1168995D1*
Y944019D1*
X1293995D2*
X1394000D1*
Y1243981D1*
X1293995D1*
Y944019D1*
X1418995D2*
X1519000D1*
Y1243981D1*
X1418995D1*
Y944019D1*
X2019005Y1243981D2*
X1919000D1*
Y944019D1*
X2019005D1*
Y1243981D1*
X1894005D2*
X1794000D1*
Y944019D1*
X1894005D1*
Y1243981D1*
X1769005D2*
X1669000D1*
Y944019D1*
X1769005D1*
Y1243981D1*
X1956495Y494019D2*
X2056500D1*
Y793981D1*
X1956495D1*
Y494019D1*
X2069005Y1544012D2*
X1969000D1*
Y1343988D1*
X2069005D1*
Y1544012D1*
X1744005D2*
X1644000D1*
Y1343988D1*
X1744005D1*
Y1544012D1*
X1419005D2*
X1319000D1*
Y1343988D1*
X1419005D1*
Y1544012D1*
X1094005D2*
X994000D1*
Y1343988D1*
X1094005D1*
Y1544012D1*
X2294180Y1819000D2*
X2493820D1*
Y1719000D2*
Y1819000D1*
X2294180Y1719000D2*
X2493820D1*
X2294180D2*
Y1819000D1*
Y1694000D2*
X2493820D1*
Y1594000D2*
Y1694000D1*
X2294180Y1594000D2*
X2493820D1*
X2294180D2*
Y1694000D1*
X768820Y1569000D2*
X569180D1*
Y1669000D2*
Y1569000D1*
X768820Y1669000D2*
X569180D1*
X768820D2*
Y1569000D1*
Y1694000D2*
X569180D1*
Y1794000D2*
Y1694000D1*
X768820Y1794000D2*
X569180D1*
X768820D2*
Y1694000D1*
X1220573Y599111D2*
X1417427D1*
X1220573Y701487D2*
X1417427D1*
Y599111D2*
Y701487D1*
X1220573Y630605D2*
Y599111D1*
Y669994D2*
Y701487D1*
Y630605D2*
G03X1220573Y669994I-9J19694D01*
G01*
X1921361Y734929D2*
X1716639D1*
X1921361Y561732D2*
X1716639D1*
Y734929D2*
Y561732D1*
X1921361Y734929D2*
Y675902D1*
Y620760D2*
Y561732D1*
Y675902D2*
G03X1921361Y620760I15J-27571D01*
G01*
X669062Y844002D2*
D26*
X644047Y819002D1*
X594016D2*
X569001Y844002D1*
X644047Y1018997D2*
X669062Y993997D1*
Y943999D2*
X644047Y919000D1*
X594016D2*
X569001Y943999D1*
Y993997D1*
X594016Y1018997D1*
X669062Y894000D2*
X644047Y919000D1*
X594016D2*
X569001Y894000D1*
Y844002D2*
Y894000D1*
X669062Y1143993D2*
X644047Y1118994D1*
X594016D2*
X569001Y1143993D1*
X644047Y1118994D2*
X669062Y1093995D1*
Y1043996D2*
X644047Y1018997D1*
X594016D2*
X569001Y1043996D1*
Y1093995D1*
X594016Y1118994D1*
X644047Y1318988D2*
X669062Y1293989D1*
Y1243991D2*
X644047Y1218991D1*
X594016D2*
X569001Y1243991D1*
Y1293989D1*
X594016Y1318988D1*
X669062Y1193992D2*
X644047Y1218991D1*
X594016D2*
X569001Y1193992D1*
Y1143993D2*
Y1193992D1*
X644047Y1418986D2*
X669062Y1393986D1*
Y1343988D2*
X644047Y1318988D1*
X594016D2*
X569001Y1343988D1*
Y1393986D1*
X594016Y1418986D1*
X669062Y744004D2*
X644047Y719005D1*
X594016D2*
X569001Y744004D1*
X669062Y794003D2*
X644047Y819002D1*
X594016D2*
X569001Y794003D1*
Y744004D2*
Y794003D1*
X669062Y644007D2*
X644047Y619008D1*
X594016D2*
X569001Y644007D1*
X669062Y694006D2*
X644047Y719005D1*
X594016D2*
X569001Y694006D1*
Y644007D2*
Y694006D1*
X669062Y544010D2*
X644047Y519011D1*
X594016D1*
X569001Y544010D1*
X669062Y594009D2*
X644047Y619008D1*
X594016D2*
X569001Y594009D1*
Y544010D2*
Y594009D1*
X594016Y1418986D2*
D27*
X569001D1*
Y1518983D1*
X669062D1*
Y1418986D2*
X644047D1*
X768908Y894000D2*
D26*
Y844002D1*
X743892Y819002D1*
X694078D2*
X669062Y844002D1*
X743892Y1018997D2*
X768908Y993997D1*
Y943999D1*
X743892Y919000D1*
X694078D2*
X669062Y943999D1*
Y993997D1*
X694078Y1018997D1*
X768908Y894000D2*
X743892Y919000D1*
X694078D2*
X669062Y894000D1*
Y844002D2*
Y894000D1*
X768908Y1193992D2*
Y1143993D1*
X743892Y1118994D1*
X694078D2*
X669062Y1143993D1*
X743892Y1118994D2*
X768908Y1093995D1*
Y1043996D1*
X743892Y1018997D1*
X694078D2*
X669062Y1043996D1*
Y1093995D1*
X694078Y1118994D1*
X743892Y1318988D2*
X768908Y1293989D1*
Y1243991D1*
X743892Y1218991D1*
X694078D2*
X669062Y1243991D1*
Y1293989D1*
X694078Y1318988D1*
X768908Y1193992D2*
X743892Y1218991D1*
X694078D2*
X669062Y1193992D1*
Y1143993D2*
Y1193992D1*
X743892Y1418986D2*
X768908Y1393986D1*
Y1343988D1*
X743892Y1318988D1*
X694078D2*
X669062Y1343988D1*
Y1393986D1*
X694078Y1418986D1*
X768908Y794003D2*
Y744004D1*
X743892Y719005D1*
X694078D2*
X669062Y744004D1*
X768908Y794003D2*
X743892Y819002D1*
X694078D2*
X669062Y794003D1*
Y744004D2*
Y794003D1*
X768908Y694006D2*
Y644007D1*
X743892Y619008D1*
X694078D2*
X669062Y644007D1*
X768908Y694006D2*
X743892Y719005D1*
X694078D2*
X669062Y694006D1*
Y644007D2*
Y694006D1*
X768908Y594009D2*
Y544010D1*
X743892Y519011D1*
X694078D1*
X669062Y544010D1*
X768908Y594009D2*
X743892Y619008D1*
X694078D2*
X669062Y594009D1*
Y544010D2*
Y594009D1*
X694078Y1418986D2*
D27*
X669062D1*
Y1518983D1*
X768908D1*
Y1418986D1*
X743892D1*
X2369023Y844002D2*
D26*
X2344008Y819002D1*
X2293977D2*
X2268962Y844002D1*
X2344008Y1018997D2*
X2369023Y993997D1*
Y943999D2*
X2344008Y919000D1*
X2293977D2*
X2268962Y943999D1*
Y993997D1*
X2293977Y1018997D1*
X2369023Y894000D2*
X2344008Y919000D1*
X2293977D2*
X2268962Y894000D1*
Y844002D2*
Y894000D1*
X2369023Y1143993D2*
X2344008Y1118994D1*
X2293977D2*
X2268962Y1143993D1*
X2344008Y1118994D2*
X2369023Y1093995D1*
Y1043996D2*
X2344008Y1018997D1*
X2293977D2*
X2268962Y1043996D1*
Y1093995D1*
X2293977Y1118994D1*
X2344008Y1318988D2*
X2369023Y1293989D1*
Y1243991D2*
X2344008Y1218991D1*
X2293977D2*
X2268962Y1243991D1*
Y1293989D1*
X2293977Y1318988D1*
X2369023Y1193992D2*
X2344008Y1218991D1*
X2293977D2*
X2268962Y1193992D1*
Y1143993D2*
Y1193992D1*
X2344008Y1418986D2*
X2369023Y1393986D1*
Y1343988D2*
X2344008Y1318988D1*
X2293977D2*
X2268962Y1343988D1*
Y1393986D1*
X2293977Y1418986D1*
X2369023Y744004D2*
X2344008Y719005D1*
X2293977D2*
X2268962Y744004D1*
X2369023Y794003D2*
X2344008Y819002D1*
X2293977D2*
X2268962Y794003D1*
Y744004D2*
Y794003D1*
X2369023Y644007D2*
X2344008Y619008D1*
X2293977D2*
X2268962Y644007D1*
X2369023Y694006D2*
X2344008Y719005D1*
X2293977D2*
X2268962Y694006D1*
Y644007D2*
Y694006D1*
X2369023Y544010D2*
X2344008Y519011D1*
X2293977D1*
X2268962Y544010D1*
X2369023Y594009D2*
X2344008Y619008D1*
X2293977D2*
X2268962Y594009D1*
Y544010D2*
Y594009D1*
X2293977Y1418986D2*
D27*
X2268962D1*
Y1518983D1*
X2369023D1*
Y1418986D2*
X2344008D1*
X2469084Y894000D2*
D26*
Y844002D1*
X2444069Y819002D1*
X2394038D2*
X2369023Y844002D1*
X2444069Y1018997D2*
X2469084Y993997D1*
Y943999D1*
X2444069Y919000D1*
X2394038D2*
X2369023Y943999D1*
Y993997D1*
X2394038Y1018997D1*
X2469084Y894000D2*
X2444069Y919000D1*
X2394038D2*
X2369023Y894000D1*
Y844002D2*
Y894000D1*
X2469084Y1193992D2*
Y1143993D1*
X2444069Y1118994D1*
X2394038D2*
X2369023Y1143993D1*
X2444069Y1118994D2*
X2469084Y1093995D1*
Y1043996D1*
X2444069Y1018997D1*
X2394038D2*
X2369023Y1043996D1*
Y1093995D1*
X2394038Y1118994D1*
X2444069Y1318988D2*
X2469084Y1293989D1*
Y1243991D1*
X2444069Y1218991D1*
X2394038D2*
X2369023Y1243991D1*
Y1293989D1*
X2394038Y1318988D1*
X2469084Y1193992D2*
X2444069Y1218991D1*
X2394038D2*
X2369023Y1193992D1*
Y1143993D2*
Y1193992D1*
X2444069Y1418986D2*
X2469084Y1393986D1*
Y1343988D1*
X2444069Y1318988D1*
X2394038D2*
X2369023Y1343988D1*
Y1393986D1*
X2394038Y1418986D1*
X2469084Y794003D2*
Y744004D1*
X2444069Y719005D1*
X2394038D2*
X2369023Y744004D1*
X2469084Y794003D2*
X2444069Y819002D1*
X2394038D2*
X2369023Y794003D1*
Y744004D2*
Y794003D1*
X2469084Y694006D2*
Y644007D1*
X2444069Y619008D1*
X2394038D2*
X2369023Y644007D1*
X2469084Y694006D2*
X2444069Y719005D1*
X2394038D2*
X2369023Y694006D1*
Y644007D2*
Y694006D1*
X2469084Y594009D2*
Y544010D1*
X2444069Y519011D1*
X2394038D1*
X2369023Y544010D1*
X2469084Y594009D2*
X2444069Y619008D1*
X2394038D2*
X2369023Y594009D1*
Y544010D2*
Y594009D1*
X2394038Y1418986D2*
D27*
X2369023D1*
Y1518983D1*
X2469084D1*
Y1418986D1*
X2444069D1*
X1568702Y934812D2*
D58*
X1566325Y939566D1*
X1561516Y944374D1*
X1556763Y946751D1*
X1547202D1*
X1542393Y944374D1*
X1537640Y939566D1*
X1535208Y934812D1*
X1532832Y927627D1*
Y915634D1*
X1535208Y908504D1*
X1537640Y903696D1*
X1542393Y898942D1*
X1547202Y896511D1*
X1556763D1*
X1561516Y898942D1*
X1566325Y903696D1*
X1568702Y908504D1*
X1584141Y937134D2*
X1588949Y939566D1*
X1596134Y946695D1*
Y896511D1*
X1557952Y784812D2*
X1555575Y789566D1*
X1550767Y794374D1*
X1546013Y796751D1*
X1536452D1*
X1531643Y794374D1*
X1526890Y789566D1*
X1524458Y784812D1*
X1522082Y777627D1*
Y765634D1*
X1524458Y758504D1*
X1526890Y753696D1*
X1531643Y748942D1*
X1536452Y746511D1*
X1546013D1*
X1550767Y748942D1*
X1555575Y753696D1*
X1557952Y758504D1*
X1575823Y784757D2*
Y787134D1*
X1578199Y791942D1*
X1580576Y794319D1*
X1585384Y796695D1*
X1594946D1*
X1599699Y794319D1*
X1602076Y791942D1*
X1604508Y787134D1*
Y782381D1*
X1602076Y777572D1*
X1597323Y770442D1*
X1573391Y746511D1*
X1606884D1*
X1120452Y859812D2*
X1118075Y864566D1*
X1113267Y869374D1*
X1108513Y871751D1*
X1098952D1*
X1094143Y869374D1*
X1089390Y864566D1*
X1086958Y859812D1*
X1084582Y852627D1*
Y840634D1*
X1086958Y833504D1*
X1089390Y828696D1*
X1094143Y823942D1*
X1098952Y821511D1*
X1108513D1*
X1113267Y823942D1*
X1118075Y828696D1*
X1120452Y833504D1*
X1140699Y871695D2*
X1166952D1*
X1152638Y852572D1*
X1159823D1*
X1164576Y850196D1*
X1166952Y847819D1*
X1169384Y840634D1*
Y835881D1*
X1166952Y828696D1*
X1162199Y823887D1*
X1155014Y821511D1*
X1147829D1*
X1140699Y823887D1*
X1138323Y826319D1*
X1135891Y831072D1*
X1131763Y759812D2*
X1129387Y764566D1*
X1124578Y769374D1*
X1119825Y771751D1*
X1110263D1*
X1105455Y769374D1*
X1100702Y764566D1*
X1098270Y759812D1*
X1095893Y752627D1*
Y740634D1*
X1098270Y733504D1*
X1100702Y728696D1*
X1105455Y723942D1*
X1110263Y721511D1*
X1119825D1*
X1124578Y723942D1*
X1129387Y728696D1*
X1131763Y733504D1*
X1171134Y721511D2*
Y771695D1*
X1147203Y738257D1*
X1183072D1*
X1919385Y1792217D2*
Y1741977D1*
X1936132D1*
X1943317Y1744408D1*
X1948125Y1749162D1*
X1950502Y1753970D1*
X1952879Y1761100D1*
Y1773093D1*
X1950502Y1780278D1*
X1948125Y1785031D1*
X1943317Y1789840D1*
X1936132Y1792217D1*
X1919385D1*
X1968318Y1782600D2*
X1973126Y1785031D1*
X1980311Y1792161D1*
Y1741977D1*
X1995751Y1733686D2*
X2041182D1*
X2056621Y1782600D2*
X2061430Y1785031D1*
X2068615Y1792161D1*
Y1741977D1*
X1596135Y1792217D2*
Y1741977D1*
X1612882D1*
X1620067Y1744408D1*
X1624875Y1749162D1*
X1627252Y1753970D1*
X1629629Y1761100D1*
Y1773093D1*
X1627252Y1780278D1*
X1624875Y1785031D1*
X1620067Y1789840D1*
X1612882Y1792217D1*
X1596135D1*
X1645068Y1782600D2*
X1649876Y1785031D1*
X1657061Y1792161D1*
Y1741977D1*
X1672501Y1733686D2*
X1717932D1*
X1735803Y1780223D2*
Y1782600D1*
X1738180Y1787408D1*
X1740556Y1789785D1*
X1745365Y1792161D1*
X1754927D1*
X1759680Y1789785D1*
X1762056Y1787408D1*
X1764488Y1782600D1*
Y1777846D1*
X1762056Y1773038D1*
X1757303Y1765908D1*
X1733371Y1741977D1*
X1766865D1*
X1271135Y1779717D2*
Y1729477D1*
X1287882D1*
X1295067Y1731908D1*
X1299875Y1736662D1*
X1302252Y1741470D1*
X1304629Y1748600D1*
Y1760593D1*
X1302252Y1767778D1*
X1299875Y1772531D1*
X1295067Y1777340D1*
X1287882Y1779717D1*
X1271135D1*
X1320068Y1770100D2*
X1324876Y1772531D1*
X1332061Y1779661D1*
Y1729477D1*
X1347501Y1721186D2*
X1392932D1*
X1413180Y1779661D2*
X1439433D1*
X1425118Y1760538D1*
X1432303D1*
X1437056Y1758161D1*
X1439433Y1755785D1*
X1441865Y1748600D1*
Y1743847D1*
X1439433Y1736662D1*
X1434680Y1731853D1*
X1427495Y1729477D1*
X1420310D1*
X1413180Y1731853D1*
X1410803Y1734285D1*
X1408371Y1739038D1*
X944947Y1792217D2*
Y1741977D1*
X961694D1*
X968879Y1744408D1*
X973687Y1749162D1*
X976064Y1753970D1*
X978440Y1761100D1*
Y1773093D1*
X976064Y1780278D1*
X973687Y1785031D1*
X968879Y1789840D1*
X961694Y1792217D1*
X944947D1*
X993880Y1782600D2*
X998688Y1785031D1*
X1005873Y1792161D1*
Y1741977D1*
X1021312Y1733686D2*
X1066744D1*
X1106115Y1741977D2*
Y1792161D1*
X1082183Y1758723D1*
X1118053D1*
X1213685Y1266983D2*
X1194506Y1317223D1*
X1175383Y1266983D1*
X1182568Y1283730D2*
X1206500D1*
X1243494Y1317168D2*
X1236309Y1314791D1*
X1231500Y1307606D1*
X1229124Y1295668D1*
Y1288483D1*
X1231500Y1276545D1*
X1236309Y1269360D1*
X1243494Y1266983D1*
X1248247D1*
X1255432Y1269360D1*
X1260185Y1276545D1*
X1262617Y1288483D1*
Y1295668D1*
X1260185Y1307606D1*
X1255432Y1314791D1*
X1248247Y1317168D1*
X1243494D1*
X1260185Y1307606D2*
X1231500Y1276545D1*
X1349435Y1266983D2*
X1330256Y1317223D1*
X1311133Y1266983D1*
X1318318Y1283730D2*
X1342249D1*
X1364874Y1307606D2*
X1369682Y1310038D1*
X1376867Y1317168D1*
Y1266983D1*
X1463685D2*
X1444506Y1317223D1*
X1425383Y1266983D1*
X1432568Y1283730D2*
X1456500D1*
X1481556Y1305230D2*
Y1307606D1*
X1483932Y1312415D1*
X1486309Y1314791D1*
X1491117Y1317168D1*
X1500679D1*
X1505432Y1314791D1*
X1507809Y1312415D1*
X1510241Y1307606D1*
Y1302853D1*
X1507809Y1298045D1*
X1503056Y1290915D1*
X1479124Y1266983D1*
X1512617D1*
X1960064Y1319093D2*
X1929003D1*
Y1268853D1*
X1960064D1*
X1929003Y1295161D2*
X1948126D1*
X1989874Y1319038D2*
X1982689Y1316661D1*
X1977880Y1309476D1*
X1975504Y1297538D1*
Y1290353D1*
X1977880Y1278415D1*
X1982689Y1271230D1*
X1989874Y1268853D1*
X1994627D1*
X2001812Y1271230D1*
X2006565Y1278415D1*
X2008997Y1290353D1*
Y1297538D1*
X2006565Y1309476D1*
X2001812Y1316661D1*
X1994627Y1319038D1*
X1989874D1*
X2006565Y1309476D2*
X1977880Y1278415D1*
X1845814Y1319093D2*
X1814753D1*
Y1268853D1*
X1845814D1*
X1814753Y1295161D2*
X1833876D1*
X1861254Y1309476D2*
X1866062Y1311908D1*
X1873247Y1319038D1*
Y1268853D1*
X1710064Y1319093D2*
X1679003D1*
Y1268853D1*
X1710064D1*
X1679003Y1295161D2*
X1698126D1*
X1727936Y1307100D2*
Y1309476D1*
X1730312Y1314285D1*
X1732689Y1316661D1*
X1737497Y1319038D1*
X1747059D1*
X1751812Y1316661D1*
X1754189Y1314285D1*
X1756620Y1309476D1*
Y1304723D1*
X1754189Y1299915D1*
X1749435Y1292785D1*
X1725504Y1268853D1*
X1758997D1*
X1958102Y867223D2*
X1970095Y816983D1*
X1982034Y867223D1*
X1993972Y816983D1*
X2005965Y867223D1*
X2021405Y840915D2*
X2042960D1*
X2050090Y843291D1*
X2052521Y845723D1*
X2054898Y850476D1*
Y857661D1*
X2052521Y862415D1*
X2050090Y864846D1*
X2042960Y867223D1*
X2021405D1*
Y816983D1*
X923259Y1105693D2*
X944759D1*
X951944Y1108125D1*
X954376Y1110501D1*
X956753Y1115255D1*
Y1120063D1*
X954376Y1124816D1*
X951944Y1127248D1*
X944759Y1129625D1*
X923259D1*
Y1079385D1*
X940006Y1105693D2*
X956753Y1079385D1*
X974624Y1117631D2*
Y1120008D1*
X977001Y1124816D1*
X979377Y1127193D1*
X984186Y1129569D1*
X993747D1*
X998500Y1127193D1*
X1000877Y1124816D1*
X1003309Y1120008D1*
Y1115255D1*
X1000877Y1110446D1*
X996124Y1103316D1*
X972192Y1079385D1*
X1005685D1*
X990181Y590189D2*
Y611689D1*
X987749Y618874D1*
X985373Y621305D1*
X980620Y623682D1*
X975811D1*
X971058Y621305D1*
X968626Y618874D1*
X966249Y611689D1*
Y590189D1*
X1016489D1*
X990181Y606935D2*
X1016489Y623682D1*
X966305Y643930D2*
Y670183D1*
X985428Y655868D1*
Y663053D1*
X987805Y667806D1*
X990181Y670183D1*
X997366Y672615D1*
X1002119D1*
X1009304Y670183D1*
X1014113Y665430D1*
X1016489Y658244D1*
Y651059D1*
X1014113Y643930D1*
X1011681Y641553D1*
X1006928Y639121D1*
X1515181Y489000D2*
Y510500D1*
X1512749Y517685D1*
X1510373Y520117D1*
X1505620Y522494D1*
X1500811D1*
X1496058Y520117D1*
X1493626Y517685D1*
X1491249Y510500D1*
Y489000D1*
X1541489D1*
X1515181Y505747D2*
X1541489Y522494D1*
Y561865D2*
X1491305D1*
X1524743Y537933D1*
Y573803D1*
X2319385Y1768291D2*
X2340885D1*
X2348070Y1770723D1*
X2350502Y1773100D1*
X2352879Y1777853D1*
Y1782661D1*
X2350502Y1787415D1*
X2348070Y1789846D1*
X2340885Y1792223D1*
X2319385D1*
Y1741983D1*
X2336132Y1768291D2*
X2352879Y1741983D1*
X2368318Y1782606D2*
X2373126Y1785038D1*
X2380311Y1792168D1*
Y1741983D1*
X2395751Y1733693D2*
X2441182D1*
X2456621Y1782606D2*
X2461430Y1785038D1*
X2468615Y1792168D1*
Y1741983D1*
X2308635Y1643291D2*
X2330135D1*
X2337320Y1645723D1*
X2339752Y1648100D1*
X2342129Y1652853D1*
Y1657661D1*
X2339752Y1662415D1*
X2337320Y1664846D1*
X2330135Y1667223D1*
X2308635D1*
Y1616983D1*
X2325382Y1643291D2*
X2342129Y1616983D1*
X2357568Y1657606D2*
X2362376Y1660038D1*
X2369561Y1667168D1*
Y1616983D1*
X2385001Y1608693D2*
X2430432D1*
X2448303Y1655230D2*
Y1657606D1*
X2450680Y1662415D1*
X2453056Y1664791D1*
X2457865Y1667168D1*
X2467427D1*
X2472180Y1664791D1*
X2474556Y1662415D1*
X2476988Y1657606D1*
Y1652853D1*
X2474556Y1648045D1*
X2469803Y1640915D1*
X2445871Y1616983D1*
X2479365D1*
X583635Y1618291D2*
X605135D1*
X612320Y1620723D1*
X614752Y1623100D1*
X617129Y1627853D1*
Y1632661D1*
X614752Y1637415D1*
X612320Y1639846D1*
X605135Y1642223D1*
X583635D1*
Y1591983D1*
X600382Y1618291D2*
X617129Y1591983D1*
X632568Y1632606D2*
X637376Y1635038D1*
X644561Y1642168D1*
Y1591983D1*
X660001Y1583693D2*
X705432D1*
X725680Y1642168D2*
X751933D1*
X737618Y1623045D1*
X744803D1*
X749556Y1620668D1*
X751933Y1618291D1*
X754365Y1611106D1*
Y1606353D1*
X751933Y1599168D1*
X747180Y1594360D1*
X739995Y1591983D1*
X732810D1*
X725680Y1594360D1*
X723303Y1596792D1*
X720871Y1601545D1*
X582447Y1743291D2*
X603947D1*
X611132Y1745723D1*
X613564Y1748100D1*
X615940Y1752853D1*
Y1757661D1*
X613564Y1762415D1*
X611132Y1764846D1*
X603947Y1767223D1*
X582447D1*
Y1716983D1*
X599194Y1743291D2*
X615940Y1716983D1*
X631380Y1757606D2*
X636188Y1760038D1*
X643373Y1767168D1*
Y1716983D1*
X658812Y1708693D2*
X704244D1*
X743615Y1716983D2*
Y1767168D1*
X719683Y1733730D1*
X755553D1*
X1228650Y886022D2*
Y835782D1*
X1211903Y886022D2*
X1245396D1*
X1260836Y854906D2*
X1289521D1*
Y859714D1*
X1287144Y864522D1*
X1284767Y866899D1*
X1279959Y869276D1*
X1272774D1*
X1268021Y866899D1*
X1263212Y862091D1*
X1260836Y854906D1*
Y850152D1*
X1263212Y842967D1*
X1268021Y838214D1*
X1272774Y835782D1*
X1279959D1*
X1284767Y838214D1*
X1289521Y842967D1*
X1304960Y869276D2*
Y835782D1*
Y859714D2*
X1312145Y866899D1*
X1316953Y869276D1*
X1324083D1*
X1328892Y866899D1*
X1331268Y859714D1*
Y835782D1*
Y859714D2*
X1338453Y866899D1*
X1343262Y869276D1*
X1350391D1*
X1355200Y866899D1*
X1357632Y859714D1*
Y835782D1*
X1373071Y869276D2*
Y819036D1*
Y862091D2*
X1377879Y866844D1*
X1382633Y869276D1*
X1389818D1*
X1394626Y866844D1*
X1399379Y862091D1*
X1401811Y854906D1*
Y850097D1*
X1399379Y842967D1*
X1394626Y838159D1*
X1389818Y835782D1*
X1382633D1*
X1377879Y838159D1*
X1373071Y842967D1*
X1417250Y876405D2*
X1422059Y878837D1*
X1429244Y885967D1*
Y835782D1*
X1788537Y906593D2*
Y870723D1*
X1790914Y863538D1*
X1795722Y858785D1*
X1802907Y856353D1*
X1807660D1*
X1814845Y858785D1*
X1819654Y863538D1*
X1822030Y870723D1*
Y906593D1*
X1837470Y896976D2*
X1842278Y899408D1*
X1849463Y906538D1*
Y856353D1*
X1022847Y1220977D2*
D59*
X1043849D1*
X1032397Y1205678D1*
X1038145D1*
X1041948Y1203777D1*
X1043849Y1201876D1*
X1045795Y1196128D1*
Y1192325D1*
X1043849Y1186577D1*
X1040047Y1182730D1*
X1034299Y1180829D1*
X1028550D1*
X1022847Y1182730D1*
X1020945Y1184676D1*
X1019000Y1188478D1*
X1058146Y1221021D2*
X1073445Y1180829D1*
X1088743Y1221021D1*
X1104941Y1220977D2*
X1125944D1*
X1114492Y1205678D1*
X1120240D1*
X1124043Y1203777D1*
X1125944Y1201876D1*
X1127889Y1196128D1*
Y1192325D1*
X1125944Y1186577D1*
X1122141Y1182730D1*
X1116393Y1180829D1*
X1110645D1*
X1104941Y1182730D1*
X1103040Y1184676D1*
X1101095Y1188478D1*
X1047696Y998970D2*
X1045795Y1002773D1*
X1041948Y1006620D1*
X1038145Y1008521D1*
X1030496D1*
X1026649Y1006620D1*
X1022847Y1002773D1*
X1020901Y998970D1*
X1019000Y993222D1*
Y983628D1*
X1020901Y977924D1*
X1022847Y974077D1*
X1026649Y970274D1*
X1030496Y968329D1*
X1038145D1*
X1041948Y970274D1*
X1045795Y974077D1*
X1047696Y977924D1*
Y983628D1*
X1038145D1*
X1086842Y1008521D2*
Y968329D1*
X1060047Y1008521D1*
Y968329D1*
X1099193Y1008521D2*
Y968329D1*
X1112591D1*
X1118339Y970274D1*
X1122185Y974077D1*
X1124087Y977924D1*
X1125988Y983628D1*
Y993222D1*
X1124087Y998970D1*
X1122185Y1002773D1*
X1118339Y1006620D1*
X1112591Y1008521D1*
X1099193D1*
X1547847Y1220977D2*
X1568849D1*
X1557397Y1205678D1*
X1563145D1*
X1566948Y1203777D1*
X1568849Y1201876D1*
X1570795Y1196128D1*
Y1192325D1*
X1568849Y1186577D1*
X1565047Y1182730D1*
X1559299Y1180829D1*
X1553550D1*
X1547847Y1182730D1*
X1545945Y1184676D1*
X1544000Y1188478D1*
X1583146Y1221021D2*
X1598445Y1180829D1*
X1613743Y1221021D1*
X1629941Y1220977D2*
X1650944D1*
X1639492Y1205678D1*
X1645240D1*
X1649043Y1203777D1*
X1650944Y1201876D1*
X1652889Y1196128D1*
Y1192325D1*
X1650944Y1186577D1*
X1647141Y1182730D1*
X1641393Y1180829D1*
X1635645D1*
X1629941Y1182730D1*
X1628040Y1184676D1*
X1626095Y1188478D1*
X1560196Y998970D2*
X1558295Y1002773D1*
X1554448Y1006620D1*
X1550645Y1008521D1*
X1542996D1*
X1539149Y1006620D1*
X1535347Y1002773D1*
X1533401Y998970D1*
X1531500Y993222D1*
Y983628D1*
X1533401Y977924D1*
X1535347Y974077D1*
X1539149Y970274D1*
X1542996Y968329D1*
X1550645D1*
X1554448Y970274D1*
X1558295Y974077D1*
X1560196Y977924D1*
Y983628D1*
X1550645D1*
X1599342Y1008521D2*
Y968329D1*
X1572547Y1008521D1*
Y968329D1*
X1611693Y1008521D2*
Y968329D1*
X1625091D1*
X1630839Y970274D1*
X1634685Y974077D1*
X1636587Y977924D1*
X1638488Y983628D1*
Y993222D1*
X1636587Y998970D1*
X1634685Y1002773D1*
X1630839Y1006620D1*
X1625091Y1008521D1*
X1611693D1*
X2035347Y1220977D2*
X2056349D1*
X2044897Y1205678D1*
X2050645D1*
X2054448Y1203777D1*
X2056349Y1201876D1*
X2058295Y1196128D1*
Y1192325D1*
X2056349Y1186577D1*
X2052547Y1182730D1*
X2046799Y1180829D1*
X2041050D1*
X2035347Y1182730D1*
X2033445Y1184676D1*
X2031500Y1188478D1*
X2070646Y1221021D2*
X2085945Y1180829D1*
X2101243Y1221021D1*
X2117441Y1220977D2*
X2138444D1*
X2126992Y1205678D1*
X2132740D1*
X2136543Y1203777D1*
X2138444Y1201876D1*
X2140389Y1196128D1*
Y1192325D1*
X2138444Y1186577D1*
X2134641Y1182730D1*
X2128893Y1180829D1*
X2123145D1*
X2117441Y1182730D1*
X2115540Y1184676D1*
X2113595Y1188478D1*
X2060196Y998970D2*
X2058295Y1002773D1*
X2054448Y1006620D1*
X2050645Y1008521D1*
X2042996D1*
X2039149Y1006620D1*
X2035347Y1002773D1*
X2033401Y998970D1*
X2031500Y993222D1*
Y983628D1*
X2033401Y977924D1*
X2035347Y974077D1*
X2039149Y970274D1*
X2042996Y968329D1*
X2050645D1*
X2054448Y970274D1*
X2058295Y974077D1*
X2060196Y977924D1*
Y983628D1*
X2050645D1*
X2099342Y1008521D2*
Y968329D1*
X2072547Y1008521D1*
Y968329D1*
X2111693Y1008521D2*
Y968329D1*
X2125091D1*
X2130839Y970274D1*
X2134685Y974077D1*
X2136587Y977924D1*
X2138488Y983628D1*
Y993222D1*
X2136587Y998970D1*
X2134685Y1002773D1*
X2130839Y1006620D1*
X2125091Y1008521D1*
X2111693D1*
X2071113Y761880D2*
D60*
X2086865D1*
X2078276Y750406D1*
X2082587D1*
X2085439Y748980D1*
X2086865Y747554D1*
X2088324Y743243D1*
Y740391D1*
X2086865Y736080D1*
X2084013Y733195D1*
X2079702Y731769D1*
X2075391D1*
X2071113Y733195D1*
X2069687Y734654D1*
X2068228Y737506D1*
X2097588Y761913D2*
X2109061Y731769D1*
X2120535Y761913D1*
X2132684Y761880D2*
X2148436D1*
X2139847Y750406D1*
X2144158D1*
X2147010Y748980D1*
X2148436Y747554D1*
X2149895Y743243D1*
Y740391D1*
X2148436Y736080D1*
X2145584Y733195D1*
X2141273Y731769D1*
X2136962D1*
X2132684Y733195D1*
X2131258Y734654D1*
X2129799Y737506D1*
X2089750Y542250D2*
X2088324Y545102D1*
X2085439Y547987D1*
X2082587Y549413D1*
X2076850D1*
X2073965Y547987D1*
X2071113Y545102D1*
X2069654Y542250D1*
X2068228Y537939D1*
Y530743D1*
X2069654Y526465D1*
X2071113Y523580D1*
X2073965Y520728D1*
X2076850Y519269D1*
X2082587D1*
X2085439Y520728D1*
X2088324Y523580D1*
X2089750Y526465D1*
Y530743D1*
X2082587D1*
X2119109Y549413D2*
Y519269D1*
X2099013Y549413D1*
Y519269D1*
X2128373Y549413D2*
Y519269D1*
X2138421D1*
X2142732Y520728D1*
X2145617Y523580D1*
X2147043Y526465D1*
X2148469Y530743D1*
Y537939D1*
X2147043Y542250D1*
X2145617Y545102D1*
X2142732Y547987D1*
X2138421Y549413D1*
X2128373D1*
X492483Y1363761D2*
D62*
X480976Y1393905D1*
X469502Y1363761D1*
X473813Y1373809D2*
X488172D1*
X499045Y1393905D2*
Y1363761D1*
X525703Y1393905D2*
Y1363761D1*
X505607Y1393905D1*
Y1363761D1*
X478991Y1279549D2*
X491891D1*
X496202Y1281008D1*
X497661Y1282434D1*
X499087Y1285286D1*
Y1288171D1*
X497661Y1291023D1*
X496202Y1292482D1*
X491891Y1293908D1*
X478991D1*
Y1263764D1*
X489039Y1279549D2*
X499087Y1263764D1*
X505648Y1293908D2*
X525744Y1263764D1*
Y1293908D2*
X505648Y1263764D1*
X489039Y1203910D2*
Y1173766D1*
X478991Y1203910D2*
X499087D1*
X505648D2*
X525744Y1173766D1*
Y1203910D2*
X505648Y1173766D1*
X462990Y1096750D2*
X461564Y1099602D1*
X458679Y1102487D1*
X455827Y1103913D1*
X450090D1*
X447205Y1102487D1*
X444353Y1099602D1*
X442894Y1096750D1*
X441468Y1092439D1*
Y1085243D1*
X442894Y1080965D1*
X444353Y1078080D1*
X447205Y1075228D1*
X450090Y1073769D1*
X455827D1*
X458679Y1075228D1*
X461564Y1078080D1*
X462990Y1080965D1*
Y1085243D1*
X455827D1*
X469551Y1088128D2*
X482485D1*
X486762Y1089554D1*
X488222Y1091013D1*
X489647Y1093865D1*
Y1098176D1*
X488222Y1101028D1*
X486762Y1102487D1*
X482485Y1103913D1*
X469551D1*
Y1073769D1*
X496209Y1103913D2*
Y1073769D1*
X511393Y1103913D2*
X508508Y1102487D1*
X505656Y1099602D1*
X504197Y1096750D1*
X502771Y1092439D1*
Y1085243D1*
X504197Y1080965D1*
X505656Y1078080D1*
X508508Y1075228D1*
X511393Y1073769D1*
X517130D1*
X519982Y1075228D1*
X522867Y1078080D1*
X524293Y1080965D1*
X525719Y1085243D1*
Y1092439D1*
X524293Y1096750D1*
X522867Y1099602D1*
X519982Y1102487D1*
X517130Y1103913D1*
X511393D1*
X492483Y973772D2*
X480976Y1003916D1*
X469502Y973772D1*
X473813Y983820D2*
X488172D1*
X499045Y1003916D2*
Y973772D1*
X525703Y1003916D2*
Y973772D1*
X505607Y1003916D1*
Y973772D1*
X475282Y896756D2*
X473856Y899608D1*
X470971Y902493D1*
X468119Y903919D1*
X462382D1*
X459497Y902493D1*
X456645Y899608D1*
X455186Y896756D1*
X453760Y892445D1*
Y885249D1*
X455186Y880971D1*
X456645Y878086D1*
X459497Y875234D1*
X462382Y873775D1*
X468119D1*
X470971Y875234D1*
X473856Y878086D1*
X475282Y880971D1*
X481843Y903919D2*
Y873775D1*
X499054D1*
X505616Y903919D2*
Y873775D1*
X525712Y903919D2*
X505616Y883823D1*
X512779Y891019D2*
X525712Y873775D1*
X462990Y796758D2*
X461564Y799610D1*
X458679Y802495D1*
X455827Y803921D1*
X450090D1*
X447205Y802495D1*
X444353Y799610D1*
X442894Y796758D1*
X441468Y792447D1*
Y785251D1*
X442894Y780973D1*
X444353Y778088D1*
X447205Y775236D1*
X450090Y773777D1*
X455827D1*
X458679Y775236D1*
X461564Y778088D1*
X462990Y780973D1*
Y785251D1*
X455827D1*
X469551Y788136D2*
X482485D1*
X486762Y789562D1*
X488222Y791021D1*
X489647Y793873D1*
Y798184D1*
X488222Y801036D1*
X486762Y802495D1*
X482485Y803921D1*
X469551D1*
Y773777D1*
X496209Y803921D2*
Y773777D1*
X511393Y803921D2*
X508508Y802495D1*
X505656Y799610D1*
X504197Y796758D1*
X502771Y792447D1*
Y785251D1*
X504197Y780973D1*
X505656Y778088D1*
X508508Y775236D1*
X511393Y773777D1*
X517130D1*
X519982Y775236D1*
X522867Y778088D1*
X524293Y780973D1*
X525719Y785251D1*
Y792447D1*
X524293Y796758D1*
X522867Y799610D1*
X519982Y802495D1*
X517130Y803921D1*
X511393D1*
X473856Y699613D2*
X471004Y702498D1*
X466693Y703924D1*
X460956D1*
X456645Y702498D1*
X453760Y699613D1*
Y696761D1*
X455219Y693876D1*
X456645Y692450D1*
X459497Y691024D1*
X468119Y688139D1*
X471004Y686713D1*
X472430Y685254D1*
X473856Y682402D1*
Y678091D1*
X471004Y675239D1*
X466693Y673780D1*
X460956D1*
X456645Y675239D1*
X453760Y678091D1*
X501939Y696761D2*
X500514Y699613D1*
X497628Y702498D1*
X494777Y703924D1*
X489040D1*
X486154Y702498D1*
X483303Y699613D1*
X481843Y696761D1*
X480418Y692450D1*
Y685254D1*
X481843Y680976D1*
X483303Y678091D1*
X486154Y675239D1*
X489040Y673780D1*
X494777D1*
X497628Y675239D1*
X500514Y678091D1*
X501939Y680976D1*
X508501Y703924D2*
Y673780D1*
X525712D1*
X469543Y599616D2*
X466691Y602501D1*
X462380Y603927D1*
X456643D1*
X452332Y602501D1*
X449447Y599616D1*
Y596764D1*
X450906Y593879D1*
X452332Y592453D1*
X455184Y591027D1*
X463806Y588142D1*
X466691Y586716D1*
X468117Y585257D1*
X469543Y582405D1*
Y578094D1*
X466691Y575242D1*
X462380Y573783D1*
X456643D1*
X452332Y575242D1*
X449447Y578094D1*
X476105Y603927D2*
Y573783D1*
X486153D1*
X490464Y575242D1*
X493349Y578094D1*
X494775Y580979D1*
X496201Y585257D1*
Y592453D1*
X494775Y596764D1*
X493349Y599616D1*
X490464Y602501D1*
X486153Y603927D1*
X476105D1*
X525743Y573783D2*
X514236Y603927D1*
X502762Y573783D1*
X507073Y583831D2*
X521432D1*
X826145Y1493869D2*
X811819D1*
X810393Y1480969D1*
X811819Y1482395D1*
X816130Y1483854D1*
X820408D1*
X824719Y1482395D1*
X827604Y1479543D1*
X829030Y1475232D1*
Y1472380D1*
X827604Y1468069D1*
X824719Y1465184D1*
X820408Y1463758D1*
X816130D1*
X811819Y1465184D1*
X810393Y1466643D1*
X808934Y1469495D1*
X835591Y1493902D2*
X847065Y1463758D1*
X858539Y1493902D1*
X830456Y1386742D2*
X829030Y1389594D1*
X826145Y1392479D1*
X823293Y1393905D1*
X817556D1*
X814671Y1392479D1*
X811819Y1389594D1*
X810360Y1386742D1*
X808934Y1382431D1*
Y1375235D1*
X810360Y1370957D1*
X811819Y1368072D1*
X814671Y1365220D1*
X817556Y1363761D1*
X823293D1*
X826145Y1365220D1*
X829030Y1368072D1*
X830456Y1370957D1*
Y1375235D1*
X823293D1*
X857113Y1393905D2*
Y1363761D1*
X837017Y1393905D1*
Y1363761D1*
X863675Y1393905D2*
Y1363761D1*
X873723D1*
X878034Y1365220D1*
X880919Y1368072D1*
X882345Y1370957D1*
X883771Y1375235D1*
Y1382431D1*
X882345Y1386742D1*
X880919Y1389594D1*
X878034Y1392479D1*
X873723Y1393905D1*
X863675D1*
X831915Y1263764D2*
X820408Y1293908D1*
X808934Y1263764D1*
X813245Y1273812D2*
X827604D1*
X838476Y1293908D2*
Y1263764D1*
X865134Y1293908D2*
Y1263764D1*
X845038Y1293908D1*
Y1263764D1*
X831915Y663780D2*
X820408Y693924D1*
X808934Y663780D1*
X813245Y673828D2*
X827604D1*
X847098Y693924D2*
X844213Y692498D1*
X841361Y689613D1*
X839902Y686761D1*
X838476Y682450D1*
Y675254D1*
X839902Y670976D1*
X841361Y668091D1*
X844213Y665239D1*
X847098Y663780D1*
X852835D1*
X855687Y665239D1*
X858572Y668091D1*
X859998Y670976D1*
X861424Y675254D1*
Y682450D1*
X859998Y686761D1*
X858572Y689613D1*
X855687Y692498D1*
X852835Y693924D1*
X847098D1*
X867986D2*
Y672402D1*
X869412Y668091D1*
X872297Y665239D1*
X876608Y663780D1*
X879460D1*
X883771Y665239D1*
X886656Y668091D1*
X888082Y672402D1*
Y693924D1*
X904692D2*
Y663780D1*
X894644Y693924D2*
X914740D1*
X499046Y1598129D2*
X501931Y1599588D1*
X506242Y1603866D1*
Y1573755D1*
X823332Y1596703D2*
Y1598129D1*
X824758Y1601014D1*
X826184Y1602440D1*
X829069Y1603866D1*
X834806D1*
X837658Y1602440D1*
X839084Y1601014D1*
X840543Y1598129D1*
Y1595277D1*
X839084Y1592392D1*
X836232Y1588114D1*
X821873Y1573755D1*
X841969D1*
X848530Y1598129D2*
X851415Y1599588D1*
X855726Y1603866D1*
Y1573755D1*
X499046Y488160D2*
X501931Y489619D1*
X506242Y493897D1*
Y463786D1*
X521426Y493897D2*
X517115Y492471D1*
X514230Y488160D1*
X512804Y480997D1*
Y476686D1*
X514230Y469523D1*
X517115Y465212D1*
X521426Y463786D1*
X524278D1*
X528589Y465212D1*
X531441Y469523D1*
X532900Y476686D1*
Y480997D1*
X531441Y488160D1*
X528589Y492471D1*
X524278Y493897D1*
X521426D1*
X531441Y488160D2*
X514230Y469523D1*
X811819Y493897D2*
X827571D1*
X818982Y482423D1*
X823293D1*
X826145Y480997D1*
X827571Y479571D1*
X829030Y475260D1*
Y472408D1*
X827571Y468097D1*
X824719Y465212D1*
X820408Y463786D1*
X816097D1*
X811819Y465212D1*
X810393Y466671D1*
X808934Y469523D1*
X844213Y493897D2*
X839902Y492471D1*
X837017Y488160D1*
X835591Y480997D1*
Y476686D1*
X837017Y469523D1*
X839902Y465212D1*
X844213Y463786D1*
X847065D1*
X851376Y465212D1*
X854228Y469523D1*
X855687Y476686D1*
Y480997D1*
X854228Y488160D1*
X851376Y492471D1*
X847065Y493897D1*
X844213D1*
X854228Y488160D2*
X837017Y469523D1*
X831915Y1163767D2*
X820408Y1193911D1*
X808934Y1163767D1*
X813245Y1173815D2*
X827604D1*
X838476Y1193911D2*
Y1163767D1*
X865134Y1193911D2*
Y1163767D1*
X845038Y1193911D1*
Y1163767D1*
X831915Y1063769D2*
X820408Y1093913D1*
X808934Y1063769D1*
X813245Y1073817D2*
X827604D1*
X838476Y1093913D2*
Y1063769D1*
X865134Y1093913D2*
Y1063769D1*
X845038Y1093913D1*
Y1063769D1*
X831915Y963772D2*
X820408Y993916D1*
X808934Y963772D1*
X813245Y973820D2*
X827604D1*
X838476Y993916D2*
Y963772D1*
X865134Y993916D2*
Y963772D1*
X845038Y993916D1*
Y963772D1*
X831915Y863775D2*
X820408Y893919D1*
X808934Y863775D1*
X813245Y873823D2*
X827604D1*
X838476Y893919D2*
Y863775D1*
X865134Y893919D2*
Y863775D1*
X845038Y893919D1*
Y863775D1*
X831915Y763778D2*
X820408Y793922D1*
X808934Y763778D1*
X813245Y773826D2*
X827604D1*
X838476Y793922D2*
Y763778D1*
X865134Y793922D2*
Y763778D1*
X845038Y793922D1*
Y763778D1*
X831915Y563783D2*
X820408Y593927D1*
X808934Y563783D1*
X813245Y573831D2*
X827604D1*
X847098Y593927D2*
X844213Y592501D1*
X841361Y589616D1*
X839902Y586764D1*
X838476Y582453D1*
Y575257D1*
X839902Y570979D1*
X841361Y568094D1*
X844213Y565242D1*
X847098Y563783D1*
X852835D1*
X855687Y565242D1*
X858572Y568094D1*
X859998Y570979D1*
X861424Y575257D1*
Y582453D1*
X859998Y586764D1*
X858572Y589616D1*
X855687Y592501D1*
X852835Y593927D1*
X847098D1*
X867986D2*
Y572405D1*
X869412Y568094D1*
X872297Y565242D1*
X876608Y563783D1*
X879460D1*
X883771Y565242D1*
X886656Y568094D1*
X888082Y572405D1*
Y593927D1*
X904692D2*
Y563783D1*
X894644Y593927D2*
X914740D1*
X2213366Y1573755D2*
Y1603866D1*
X2199007Y1583803D1*
X2220529D1*
X2235712Y1603866D2*
X2231401Y1602440D1*
X2228516Y1598129D1*
X2227090Y1590966D1*
Y1586655D1*
X2228516Y1579492D1*
X2231401Y1575181D1*
X2235712Y1573755D1*
X2238564D1*
X2242875Y1575181D1*
X2245727Y1579492D1*
X2247186Y1586655D1*
Y1590966D1*
X2245727Y1598129D1*
X2242875Y1602440D1*
X2238564Y1603866D1*
X2235712D1*
X2245727Y1598129D2*
X2228516Y1579492D1*
X2510353Y1596703D2*
Y1598129D1*
X2511779Y1601014D1*
X2513205Y1602440D1*
X2516090Y1603866D1*
X2521827D1*
X2524679Y1602440D1*
X2526105Y1601014D1*
X2527564Y1598129D1*
Y1595277D1*
X2526105Y1592392D1*
X2523253Y1588114D1*
X2508894Y1573755D1*
X2528990D1*
X2544174Y1603866D2*
X2539863Y1602440D1*
X2536978Y1598129D1*
X2535552Y1590966D1*
Y1586655D1*
X2536978Y1579492D1*
X2539863Y1575181D1*
X2544174Y1573755D1*
X2547026D1*
X2551337Y1575181D1*
X2554189Y1579492D1*
X2555648Y1586655D1*
Y1590966D1*
X2554189Y1598129D1*
X2551337Y1602440D1*
X2547026Y1603866D1*
X2544174D1*
X2554189Y1598129D2*
X2536978Y1579492D1*
X2201892Y493897D2*
X2217644D1*
X2209055Y482423D1*
X2213366D1*
X2216218Y480997D1*
X2217644Y479571D1*
X2219103Y475260D1*
Y472408D1*
X2217644Y468097D1*
X2214792Y465212D1*
X2210481Y463786D1*
X2206170D1*
X2201892Y465212D1*
X2200466Y466671D1*
X2199007Y469523D1*
X2225664Y488160D2*
X2228550Y489619D1*
X2232861Y493897D1*
Y463786D1*
X2534772Y488160D2*
X2537657Y489619D1*
X2541968Y493897D1*
Y463786D1*
X2548530Y488160D2*
X2551415Y489619D1*
X2555726Y493897D1*
Y463786D1*
X2140782Y1378120D2*
X2153715D1*
X2157993Y1379546D1*
X2159452Y1381005D1*
X2160878Y1383857D1*
Y1388168D1*
X2159452Y1391020D1*
X2157993Y1392479D1*
X2153715Y1393905D1*
X2140782D1*
Y1363761D1*
X2167439Y1393905D2*
X2174635Y1363761D1*
X2181798Y1393905D1*
X2188961Y1363761D1*
X2196157Y1393905D1*
X2225667Y1363761D2*
Y1393905D1*
X2214193Y1363761D1*
X2202719Y1393905D1*
Y1363761D1*
X2140782Y1278123D2*
X2153715D1*
X2157993Y1279549D1*
X2159452Y1281008D1*
X2160878Y1283860D1*
Y1288171D1*
X2159452Y1291023D1*
X2157993Y1292482D1*
X2153715Y1293908D1*
X2140782D1*
Y1263764D1*
X2167439Y1293908D2*
X2174635Y1263764D1*
X2181798Y1293908D1*
X2188961Y1263764D1*
X2196157Y1293908D1*
X2225667Y1263764D2*
Y1293908D1*
X2214193Y1263764D1*
X2202719Y1293908D1*
Y1263764D1*
X2140782Y1188125D2*
X2153715D1*
X2157993Y1189551D1*
X2159452Y1191010D1*
X2160878Y1193862D1*
Y1198173D1*
X2159452Y1201025D1*
X2157993Y1202484D1*
X2153715Y1203910D1*
X2140782D1*
Y1173766D1*
X2167439Y1203910D2*
X2174635Y1173766D1*
X2181798Y1203910D1*
X2188961Y1173766D1*
X2196157Y1203910D1*
X2225667Y1173766D2*
Y1203910D1*
X2214193Y1173766D1*
X2202719Y1203910D1*
Y1173766D1*
X2127755Y1103913D2*
Y1073769D1*
X2117707Y1103913D2*
X2137803D1*
X2144365D2*
Y1073769D1*
X2173874D2*
Y1103913D1*
X2162400Y1073769D1*
X2150926Y1103913D1*
Y1073769D1*
X2199073Y1103913D2*
X2180436D1*
Y1073769D1*
X2199073D1*
X2180436Y1089554D2*
X2191910D1*
X2205635D2*
X2218535D1*
X2222846Y1091013D1*
X2224305Y1092439D1*
X2225731Y1095291D1*
Y1098176D1*
X2224305Y1101028D1*
X2222846Y1102487D1*
X2218535Y1103913D1*
X2205635D1*
Y1073769D1*
X2215683Y1089554D2*
X2225731Y1073769D1*
X2127755Y1003916D2*
Y973772D1*
X2117707Y1003916D2*
X2137803D1*
X2144365D2*
Y973772D1*
X2173874D2*
Y1003916D1*
X2162400Y973772D1*
X2150926Y1003916D1*
Y973772D1*
X2199073Y1003916D2*
X2180436D1*
Y973772D1*
X2199073D1*
X2180436Y989557D2*
X2191910D1*
X2205635D2*
X2218535D1*
X2222846Y991016D1*
X2224305Y992442D1*
X2225731Y995294D1*
Y998179D1*
X2224305Y1001031D1*
X2222846Y1002490D1*
X2218535Y1003916D1*
X2205635D1*
Y973772D1*
X2215683Y989557D2*
X2225731Y973772D1*
X2162950Y896756D2*
X2161525Y899608D1*
X2158639Y902493D1*
X2155788Y903919D1*
X2150051D1*
X2147165Y902493D1*
X2144314Y899608D1*
X2142854Y896756D1*
X2141429Y892445D1*
Y885249D1*
X2142854Y880971D1*
X2144314Y878086D1*
X2147165Y875234D1*
X2150051Y873775D1*
X2155788D1*
X2158639Y875234D1*
X2161525Y878086D1*
X2162950Y880971D1*
Y885249D1*
X2155788D1*
X2169512Y888134D2*
X2182445D1*
X2186723Y889560D1*
X2188182Y891019D1*
X2189608Y893871D1*
Y898182D1*
X2188182Y901033D1*
X2186723Y902493D1*
X2182445Y903919D1*
X2169512D1*
Y873775D1*
X2196170Y903919D2*
Y873775D1*
X2211354Y903919D2*
X2208468Y902493D1*
X2205617Y899608D1*
X2204157Y896756D1*
X2202732Y892445D1*
Y885249D1*
X2204157Y880971D1*
X2205617Y878086D1*
X2208468Y875234D1*
X2211354Y873775D1*
X2217091D1*
X2219942Y875234D1*
X2222828Y878086D1*
X2224253Y880971D1*
X2225679Y885249D1*
Y892445D1*
X2224253Y896756D1*
X2222828Y899608D1*
X2219942Y902493D1*
X2217091Y903919D1*
X2211354D1*
X2162950Y796758D2*
X2161525Y799610D1*
X2158639Y802495D1*
X2155788Y803921D1*
X2150051D1*
X2147165Y802495D1*
X2144314Y799610D1*
X2142854Y796758D1*
X2141429Y792447D1*
Y785251D1*
X2142854Y780973D1*
X2144314Y778088D1*
X2147165Y775236D1*
X2150051Y773777D1*
X2155788D1*
X2158639Y775236D1*
X2161525Y778088D1*
X2162950Y780973D1*
Y785251D1*
X2155788D1*
X2169512Y788136D2*
X2182445D1*
X2186723Y789562D1*
X2188182Y791021D1*
X2189608Y793873D1*
Y798184D1*
X2188182Y801036D1*
X2186723Y802495D1*
X2182445Y803921D1*
X2169512D1*
Y773777D1*
X2196170Y803921D2*
Y773777D1*
X2211354Y803921D2*
X2208468Y802495D1*
X2205617Y799610D1*
X2204157Y796758D1*
X2202732Y792447D1*
Y785251D1*
X2204157Y780973D1*
X2205617Y778088D1*
X2208468Y775236D1*
X2211354Y773777D1*
X2217091D1*
X2219942Y775236D1*
X2222828Y778088D1*
X2224253Y780973D1*
X2225679Y785251D1*
Y792447D1*
X2224253Y796758D1*
X2222828Y799610D1*
X2219942Y802495D1*
X2217091Y803921D1*
X2211354D1*
X2162950Y696761D2*
X2161525Y699613D1*
X2158639Y702498D1*
X2155788Y703924D1*
X2150051D1*
X2147165Y702498D1*
X2144314Y699613D1*
X2142854Y696761D1*
X2141429Y692450D1*
Y685254D1*
X2142854Y680976D1*
X2144314Y678091D1*
X2147165Y675239D1*
X2150051Y673780D1*
X2155788D1*
X2158639Y675239D1*
X2161525Y678091D1*
X2162950Y680976D1*
Y685254D1*
X2155788D1*
X2169512Y688139D2*
X2182445D1*
X2186723Y689565D1*
X2188182Y691024D1*
X2189608Y693876D1*
Y698187D1*
X2188182Y701039D1*
X2186723Y702498D1*
X2182445Y703924D1*
X2169512D1*
Y673780D1*
X2196170Y703924D2*
Y673780D1*
X2211354Y703924D2*
X2208468Y702498D1*
X2205617Y699613D1*
X2204157Y696761D1*
X2202732Y692450D1*
Y685254D1*
X2204157Y680976D1*
X2205617Y678091D1*
X2208468Y675239D1*
X2211354Y673780D1*
X2217091D1*
X2219942Y675239D1*
X2222828Y678091D1*
X2224253Y680976D1*
X2225679Y685254D1*
Y692450D1*
X2224253Y696761D1*
X2222828Y699613D1*
X2219942Y702498D1*
X2217091Y703924D1*
X2211354D1*
X2162950Y596764D2*
X2161525Y599616D1*
X2158639Y602501D1*
X2155788Y603927D1*
X2150051D1*
X2147165Y602501D1*
X2144314Y599616D1*
X2142854Y596764D1*
X2141429Y592453D1*
Y585257D1*
X2142854Y580979D1*
X2144314Y578094D1*
X2147165Y575242D1*
X2150051Y573783D1*
X2155788D1*
X2158639Y575242D1*
X2161525Y578094D1*
X2162950Y580979D1*
Y585257D1*
X2155788D1*
X2169512Y588142D2*
X2182445D1*
X2186723Y589568D1*
X2188182Y591027D1*
X2189608Y593879D1*
Y598190D1*
X2188182Y601042D1*
X2186723Y602501D1*
X2182445Y603927D1*
X2169512D1*
Y573783D1*
X2196170Y603927D2*
Y573783D1*
X2211354Y603927D2*
X2208468Y602501D1*
X2205617Y599616D1*
X2204157Y596764D1*
X2202732Y592453D1*
Y585257D1*
X2204157Y580979D1*
X2205617Y578094D1*
X2208468Y575242D1*
X2211354Y573783D1*
X2217091D1*
X2219942Y575242D1*
X2222828Y578094D1*
X2224253Y580979D1*
X2225679Y585257D1*
Y592453D1*
X2224253Y596764D1*
X2222828Y599616D1*
X2219942Y602501D1*
X2217091Y603927D1*
X2211354D1*
X2530416Y1486739D2*
X2528990Y1489591D1*
X2526105Y1492476D1*
X2523253Y1493902D1*
X2517516D1*
X2514631Y1492476D1*
X2511779Y1489591D1*
X2510320Y1486739D1*
X2508894Y1482428D1*
Y1475232D1*
X2510320Y1470954D1*
X2511779Y1468069D1*
X2514631Y1465217D1*
X2517516Y1463758D1*
X2523253D1*
X2526105Y1465217D1*
X2528990Y1468069D1*
X2530416Y1470954D1*
Y1475232D1*
X2523253D1*
X2557074Y1493902D2*
Y1463758D1*
X2536978Y1493902D1*
Y1463758D1*
X2563636Y1493902D2*
Y1463758D1*
X2573684D1*
X2577995Y1465217D1*
X2580880Y1468069D1*
X2582306Y1470954D1*
X2583732Y1475232D1*
Y1482428D1*
X2582306Y1486739D1*
X2580880Y1489591D1*
X2577995Y1492476D1*
X2573684Y1493902D1*
X2563636D1*
X2508894Y1378120D2*
X2521827D1*
X2526105Y1379546D1*
X2527564Y1381005D1*
X2528990Y1383857D1*
Y1388168D1*
X2527564Y1391020D1*
X2526105Y1392479D1*
X2521827Y1393905D1*
X2508894D1*
Y1363761D1*
X2535552Y1393905D2*
X2542748Y1363761D1*
X2549911Y1393905D1*
X2557074Y1363761D1*
X2564270Y1393905D1*
X2593780Y1363761D2*
Y1393905D1*
X2582306Y1363761D1*
X2570832Y1393905D1*
Y1363761D1*
X2530416Y1286745D2*
X2528990Y1289597D1*
X2526105Y1292482D1*
X2523253Y1293908D1*
X2517516D1*
X2514631Y1292482D1*
X2511779Y1289597D1*
X2510320Y1286745D1*
X2508894Y1282434D1*
Y1275238D1*
X2510320Y1270960D1*
X2511779Y1268075D1*
X2514631Y1265223D1*
X2517516Y1263764D1*
X2523253D1*
X2526105Y1265223D1*
X2528990Y1268075D1*
X2530416Y1270960D1*
X2557074Y1289597D2*
X2554222Y1292482D1*
X2549911Y1293908D1*
X2544174D1*
X2539863Y1292482D1*
X2536978Y1289597D1*
Y1286745D1*
X2538437Y1283860D1*
X2539863Y1282434D1*
X2542715Y1281008D1*
X2551337Y1278123D1*
X2554222Y1276697D1*
X2555648Y1275238D1*
X2557074Y1272386D1*
Y1268075D1*
X2554222Y1265223D1*
X2549911Y1263764D1*
X2544174D1*
X2539863Y1265223D1*
X2536978Y1268075D1*
X2530416Y686761D2*
X2528990Y689613D1*
X2526105Y692498D1*
X2523253Y693924D1*
X2517516D1*
X2514631Y692498D1*
X2511779Y689613D1*
X2510320Y686761D1*
X2508894Y682450D1*
Y675254D1*
X2510320Y670976D1*
X2511779Y668091D1*
X2514631Y665239D1*
X2517516Y663780D1*
X2523253D1*
X2526105Y665239D1*
X2528990Y668091D1*
X2530416Y670976D1*
X2557074Y689613D2*
X2554222Y692498D1*
X2549911Y693924D1*
X2544174D1*
X2539863Y692498D1*
X2536978Y689613D1*
Y686761D1*
X2538437Y683876D1*
X2539863Y682450D1*
X2542715Y681024D1*
X2551337Y678139D1*
X2554222Y676713D1*
X2555648Y675254D1*
X2557074Y672402D1*
Y668091D1*
X2554222Y665239D1*
X2549911Y663780D1*
X2544174D1*
X2539863Y665239D1*
X2536978Y668091D1*
X2530416Y1186748D2*
X2528990Y1189600D1*
X2526105Y1192485D1*
X2523253Y1193911D1*
X2517516D1*
X2514631Y1192485D1*
X2511779Y1189600D1*
X2510320Y1186748D1*
X2508894Y1182437D1*
Y1175240D1*
X2510320Y1170963D1*
X2511779Y1168078D1*
X2514631Y1165226D1*
X2517516Y1163767D1*
X2523253D1*
X2526105Y1165226D1*
X2528990Y1168078D1*
X2530416Y1170963D1*
Y1175240D1*
X2523253D1*
X2536978Y1178126D2*
X2549911D1*
X2554189Y1179552D1*
X2555648Y1181011D1*
X2557074Y1183863D1*
Y1188174D1*
X2555648Y1191025D1*
X2554189Y1192485D1*
X2549911Y1193911D1*
X2536978D1*
Y1163767D1*
X2563636Y1193911D2*
Y1163767D1*
X2578819Y1193911D2*
X2575934Y1192485D1*
X2573082Y1189600D1*
X2571623Y1186748D1*
X2570197Y1182437D1*
Y1175240D1*
X2571623Y1170963D1*
X2573082Y1168078D1*
X2575934Y1165226D1*
X2578819Y1163767D1*
X2584556D1*
X2587408Y1165226D1*
X2590293Y1168078D1*
X2591719Y1170963D1*
X2593145Y1175240D1*
Y1182437D1*
X2591719Y1186748D1*
X2590293Y1189600D1*
X2587408Y1192485D1*
X2584556Y1193911D1*
X2578819D1*
X2508894Y1079554D2*
X2521794D1*
X2526105Y1081013D1*
X2527564Y1082439D1*
X2528990Y1085291D1*
Y1088176D1*
X2527564Y1091028D1*
X2526105Y1092487D1*
X2521794Y1093913D1*
X2508894D1*
Y1063769D1*
X2518942Y1079554D2*
X2528990Y1063769D1*
X2555648Y1089602D2*
X2552796Y1092487D1*
X2548485Y1093913D1*
X2542748D1*
X2538437Y1092487D1*
X2535552Y1089602D1*
Y1086750D1*
X2537011Y1083865D1*
X2538437Y1082439D1*
X2541289Y1081013D1*
X2549911Y1078128D1*
X2552796Y1076702D1*
X2554222Y1075243D1*
X2555648Y1072391D1*
Y1068080D1*
X2552796Y1065228D1*
X2548485Y1063769D1*
X2542748D1*
X2538437Y1065228D1*
X2535552Y1068080D1*
X2572258Y1093913D2*
Y1063769D1*
X2562210Y1093913D2*
X2582306D1*
X2531842Y963772D2*
Y993916D1*
X2520368Y963772D1*
X2508894Y993916D1*
Y963772D1*
X2547026Y993916D2*
X2544141Y992490D1*
X2541289Y989605D1*
X2539830Y986753D1*
X2538404Y982442D1*
Y975246D1*
X2539830Y970968D1*
X2541289Y968083D1*
X2544141Y965231D1*
X2547026Y963772D1*
X2552763D1*
X2555615Y965231D1*
X2558500Y968083D1*
X2559926Y970968D1*
X2561352Y975246D1*
Y982442D1*
X2559926Y986753D1*
X2558500Y989605D1*
X2555615Y992490D1*
X2552763Y993916D1*
X2547026D1*
X2588010Y989605D2*
X2585158Y992490D1*
X2580847Y993916D1*
X2575110D1*
X2570799Y992490D1*
X2567914Y989605D1*
Y986753D1*
X2569373Y983868D1*
X2570799Y982442D1*
X2573650Y981016D1*
X2582273Y978131D1*
X2585158Y976705D1*
X2586584Y975246D1*
X2588010Y972394D1*
Y968083D1*
X2585158Y965231D1*
X2580847Y963772D1*
X2575110D1*
X2570799Y965231D1*
X2567914Y968083D1*
X2594571Y993916D2*
Y963772D1*
X2531842Y863775D2*
Y893919D1*
X2520368Y863775D1*
X2508894Y893919D1*
Y863775D1*
X2538404Y893919D2*
Y863775D1*
X2565062Y889608D2*
X2562210Y892493D1*
X2557899Y893919D1*
X2552162D1*
X2547851Y892493D1*
X2544966Y889608D1*
Y886756D1*
X2546425Y883871D1*
X2547851Y882445D1*
X2550703Y881019D1*
X2559325Y878134D1*
X2562210Y876708D1*
X2563636Y875249D1*
X2565062Y872397D1*
Y868086D1*
X2562210Y865234D1*
X2557899Y863775D1*
X2552162D1*
X2547851Y865234D1*
X2544966Y868086D1*
X2580245Y893919D2*
X2577360Y892493D1*
X2574508Y889608D1*
X2573049Y886756D1*
X2571623Y882445D1*
Y875249D1*
X2573049Y870971D1*
X2574508Y868086D1*
X2577360Y865234D1*
X2580245Y863775D1*
X2585982D1*
X2588834Y865234D1*
X2591719Y868086D1*
X2593145Y870971D1*
X2594571Y875249D1*
Y882445D1*
X2593145Y886756D1*
X2591719Y889608D1*
X2588834Y892493D1*
X2585982Y893919D1*
X2580245D1*
X2530416Y786759D2*
X2528990Y789611D1*
X2526105Y792496D1*
X2523253Y793922D1*
X2517516D1*
X2514631Y792496D1*
X2511779Y789611D1*
X2510320Y786759D1*
X2508894Y782448D1*
Y775252D1*
X2510320Y770974D1*
X2511779Y768089D1*
X2514631Y765237D1*
X2517516Y763778D1*
X2523253D1*
X2526105Y765237D1*
X2528990Y768089D1*
X2530416Y770974D1*
X2557074Y789611D2*
X2554222Y792496D1*
X2549911Y793922D1*
X2544174D1*
X2539863Y792496D1*
X2536978Y789611D1*
Y786759D1*
X2538437Y783874D1*
X2539863Y782448D1*
X2542715Y781022D1*
X2551337Y778137D1*
X2554222Y776711D1*
X2555648Y775252D1*
X2557074Y772400D1*
Y768089D1*
X2554222Y765237D1*
X2549911Y763778D1*
X2544174D1*
X2539863Y765237D1*
X2536978Y768089D1*
X2530416Y586764D2*
X2528990Y589616D1*
X2526105Y592501D1*
X2523253Y593927D1*
X2517516D1*
X2514631Y592501D1*
X2511779Y589616D1*
X2510320Y586764D1*
X2508894Y582453D1*
Y575257D1*
X2510320Y570979D1*
X2511779Y568094D1*
X2514631Y565242D1*
X2517516Y563783D1*
X2523253D1*
X2526105Y565242D1*
X2528990Y568094D1*
X2530416Y570979D1*
Y575257D1*
X2523253D1*
X2536978Y578142D2*
X2549911D1*
X2554189Y579568D1*
X2555648Y581027D1*
X2557074Y583879D1*
Y588190D1*
X2555648Y591042D1*
X2554189Y592501D1*
X2549911Y593927D1*
X2536978D1*
Y563783D1*
X2563636Y593927D2*
Y563783D1*
X2578819Y593927D2*
X2575934Y592501D1*
X2573082Y589616D1*
X2571623Y586764D1*
X2570197Y582453D1*
Y575257D1*
X2571623Y570979D1*
X2573082Y568094D1*
X2575934Y565242D1*
X2578819Y563783D1*
X2584556D1*
X2587408Y565242D1*
X2590293Y568094D1*
X2591719Y570979D1*
X2593145Y575257D1*
Y582453D1*
X2591719Y586764D1*
X2590293Y589616D1*
X2587408Y592501D1*
X2584556Y593927D1*
X2578819D1*
X2140782Y1478117D2*
X2153715D1*
X2157993Y1479543D1*
X2159452Y1481002D1*
X2160878Y1483854D1*
Y1488165D1*
X2159452Y1491017D1*
X2157993Y1492476D1*
X2153715Y1493902D1*
X2140782D1*
Y1463758D1*
X2167439Y1493902D2*
X2174635Y1463758D1*
X2181798Y1493902D1*
X2188961Y1463758D1*
X2196157Y1493902D1*
X2225667Y1463758D2*
Y1493902D1*
X2214193Y1463758D1*
X2202719Y1493902D1*
Y1463758D1*
M02*
