M48
INCH
T01C0.0191
T02C0.028
T03C0.038
T04C0.04
T05C0.0433
%
T01
X+014440Y+005440
X+015192Y+006940
X+015192Y+008440
X+016940Y+007940
X+009692Y+007440
X+009442Y+008440
T02
X+020190Y+016940
X+020190Y+017940
X+016940Y+017940
X+016940Y+016940
X+013690Y+016940
X+013690Y+017940
X+010440Y+017940
X+010440Y+016940
T03
X+025940Y+017690
X+025940Y+016440
X+021940Y+016440
X+021940Y+017690
X+008690Y+017440
X+008690Y+016190
X+004690Y+016190
X+004690Y+017440
T04
X+006190Y+014690
X+006190Y+013690
X+006190Y+012690
X+006190Y+011690
X+006190Y+010690
X+006190Y+009690
X+006190Y+008690
X+006190Y+007690
X+006190Y+006690
X+006190Y+005690
X+007190Y+005690
X+007190Y+006690
X+007190Y+007690
X+007190Y+008690
X+007190Y+009690
X+007190Y+010690
X+007190Y+011690
X+007190Y+012690
X+007190Y+013690
X+007190Y+014690
X+023190Y+014690
X+024190Y+014690
X+024190Y+013690
X+023190Y+013690
X+023190Y+012690
X+023190Y+011690
X+024190Y+011690
X+024190Y+012690
X+024190Y+010690
X+023190Y+010690
X+023190Y+009690
X+023190Y+008690
X+024190Y+008690
X+024190Y+009690
X+024190Y+007690
X+023190Y+007690
X+023190Y+006690
X+023190Y+005690
X+024190Y+005690
X+024190Y+006690
T05
X+012190Y+009940
X+012190Y+010940
X+012190Y+011940
X+013440Y+011940
X+013440Y+010940
X+013440Y+009940
X+014690Y+009940
X+014690Y+010940
X+014690Y+011940
X+013690Y+013940
X+013690Y+014940
X+016940Y+014940
X+016940Y+013940
X+017190Y+011940
X+017190Y+010940
X+017190Y+009940
X+018440Y+009940
X+018440Y+010940
X+018440Y+011940
X+019690Y+011940
X+019690Y+010940
X+019690Y+009940
X+020065Y+007440
X+020065Y+006440
X+020065Y+005440
X+020190Y+013940
X+020190Y+014940
X+010440Y+014940
X+010440Y+013940
T00
M30
